<svg id="visual" viewBox="0 0 900 450" width="900" height="450" xmlns="http://www.w3.org/2000/svg" xmlns:xlink="http://www.w3.org/1999/xlink" version="1.1"><rect x="0" y="0" width="900" height="450" fill="#93B835"></rect><path d="M0 285L21.5 293C43 301 86 317 128.8 323.2C171.7 329.3 214.3 325.7 257.2 319C300 312.3 343 302.7 385.8 294.8C428.7 287 471.3 281 514.2 280.7C557 280.3 600 285.7 642.8 286C685.7 286.3 728.3 281.7 771.2 277C814 272.3 857 267.7 878.5 265.3L900 263L900 451L878.5 451C857 451 814 451 771.2 451C728.3 451 685.7 451 642.8 451C600 451 557 451 514.2 451C471.3 451 428.7 451 385.8 451C343 451 300 451 257.2 451C214.3 451 171.7 451 128.8 451C86 451 43 451 21.5 451L0 451Z" fill="#93b835"></path><path d="M0 339L21.5 341.5C43 344 86 349 128.8 341.8C171.7 334.7 214.3 315.3 257.2 310.8C300 306.3 343 316.7 385.8 327C428.7 337.3 471.3 347.7 514.2 350.8C557 354 600 350 642.8 347.3C685.7 344.7 728.3 343.3 771.2 338.2C814 333 857 324 878.5 319.5L900 315L900 451L878.5 451C857 451 814 451 771.2 451C728.3 451 685.7 451 642.8 451C600 451 557 451 514.2 451C471.3 451 428.7 451 385.8 451C343 451 300 451 257.2 451C214.3 451 171.7 451 128.8 451C86 451 43 451 21.5 451L0 451Z" fill="#b0c96b"></path><path d="M0 355L21.5 350.7C43 346.3 86 337.7 128.8 336.7C171.7 335.7 214.3 342.3 257.2 346.7C300 351 343 353 385.8 357.8C428.7 362.7 471.3 370.3 514.2 372.3C557 374.3 600 370.7 642.8 364.7C685.7 358.7 728.3 350.3 771.2 345.8C814 341.3 857 340.7 878.5 340.3L900 340L900 451L878.5 451C857 451 814 451 771.2 451C728.3 451 685.7 451 642.8 451C600 451 557 451 514.2 451C471.3 451 428.7 451 385.8 451C343 451 300 451 257.2 451C214.3 451 171.7 451 128.8 451C86 451 43 451 21.5 451L0 451Z" fill="#ccdb9c"></path><path d="M0 404L21.5 403.2C43 402.3 86 400.7 128.8 401C171.7 401.3 214.3 403.7 257.2 404.7C300 405.7 343 405.3 385.8 404.5C428.7 403.7 471.3 402.3 514.2 401.2C557 400 600 399 642.8 395C685.7 391 728.3 384 771.2 379.2C814 374.3 857 371.7 878.5 370.3L900 369L900 451L878.5 451C857 451 814 451 771.2 451C728.3 451 685.7 451 642.8 451C600 451 557 451 514.2 451C471.3 451 428.7 451 385.8 451C343 451 300 451 257.2 451C214.3 451 171.7 451 128.8 451C86 451 43 451 21.5 451L0 451Z" fill="#e6edcd"></path><path d="M0 403L21.5 406.5C43 410 86 417 128.8 421.3C171.7 425.7 214.3 427.3 257.2 427C300 426.7 343 424.3 385.8 423.8C428.7 423.3 471.3 424.7 514.2 424C557 423.3 600 420.7 642.8 415.5C685.7 410.3 728.3 402.7 771.2 399.7C814 396.7 857 398.3 878.5 399.2L900 400L900 451L878.5 451C857 451 814 451 771.2 451C728.3 451 685.7 451 642.8 451C600 451 557 451 514.2 451C471.3 451 428.7 451 385.8 451C343 451 300 451 257.2 451C214.3 451 171.7 451 128.8 451C86 451 43 451 21.5 451L0 451Z" fill="#ffffff"></path></svg>